<?xml version="1.0" encoding="utf-8"?><svg xmlns:xlink="http://www.w3.org/1999/xlink" id="tapet-icon" image-rendering="auto" baseProfile="basic" version="1.1" x="0px" y="0px" width="128" height="128" xmlns="http://www.w3.org/2000/svg"><defs><radialGradient gradientUnits="userSpaceOnUse" color-interpolation="sRGB" r="19.842" cx="25.7" cy="29.4" fx="25.7" fy="29.4" gradientTransform="matrix(1 0 0 1 0 0)" id="radialGradient"><stop stop-color="#000" stop-opacity="0.4" offset="0"/><stop stop-color="#000" stop-opacity="0" offset="1"/></radialGradient><linearGradient gradientUnits="userSpaceOnUse" color-interpolation="sRGB" x1="64" y1="15.15" x2="64" y2="119.15" id="linearGradient"><stop stop-color="#0044E4" stop-opacity="1" offset="0"/><stop stop-color="#002E99" stop-opacity="1" offset="1"/></linearGradient><radialGradient gradientUnits="userSpaceOnUse" color-interpolation="sRGB" r="54.553" cx="64.05" cy="119.85" fx="64.05" fy="119.85" gradientTransform="matrix(1 0 0 0.048 0 114.1)" id="radialGradient1"><stop stop-color="#000" stop-opacity="0.4980392156862745" offset="0"/><stop stop-color="#000" stop-opacity="0" offset="1"/></radialGradient></defs><g id="Scene_1" overflow="visible"><path fill="url(#radialGradient1)" d="M10,119.85Q10,120.85 25.85,121.6 41.65,122.35 64.05,122.35 86.35,122.35 102.15,121.6 118,120.85 118,119.85 118,118.8 102.15,118.05 86.35,117.35 64.05,117.35 41.65,117.35 25.85,118.05 10,118.8 10,119.85"/><path fill="url(#linearGradient)" d="M116,22.95Q115.95,19.8 113.7,17.5 111.4,15.2 108.2,15.15L19.8,15.15Q16.65,15.2 14.4,17.5 12.05,19.8 12,22.95L12,111.35Q12.05,114.5 14.4,116.8 16.65,119.1 19.8,119.15L108.2,119.15Q111.4,119.1 113.7,116.8 115.95,114.5 116,111.35L116,22.95"/><g id="background_inline" transform="matrix(1 0 0 1 12.6 15.7)"><path fill="none" stroke="undefined" stroke-linecap="round" stroke-linejoin="round" d="M103,7.75Q102.95,4.6 100.75,2.3 98.45,0.05 95.3,0L7.75,0Q4.6,0.05 2.35,2.3 0.05,4.6 0,7.75L0,95.3Q0.05,98.4 2.35,100.7 4.6,102.95 7.75,103L95.3,103Q98.45,102.95 100.75,100.7 102.95,98.4 103,95.3L103,7.75"/></g><g id="background_outliine" transform="matrix(1 0 0 1 12 15.15)"><path fill="none" stroke="#A4ACDC" stroke-opacity="0.498" stroke-linecap="round" stroke-linejoin="round" d="M104,7.8Q103.95,4.6 101.65,2.3 99.35,0.05 96.2,0L7.8,0Q4.65,0.05 2.35,2.3 0.05,4.6 0,7.8L0,96.2Q0.05,99.35 2.35,101.6 4.65,103.95 7.8,104L96.2,104Q99.35,103.95 101.65,101.6 103.95,99.35 104,96.2L104,7.8"/></g><path fill="#FFF" d="M104.4,87.925Q104.317,87.393 103.95,86.7L86.45,62.9Q82.9,57.8 79.75,63.1L74.4,70.4 56.35,39.9Q52.75,34.5 49.55,39.9L23.9,86.5Q23.162,87.976 23.5,88.825 24.006,90.018 26.75,89.9L101,89.9Q104.782,90.059 104.4,87.925"/><path fill="#D4D4D4" d="M101.1,90.3Q105.222,90.474 104.4,87.925 104.782,90.059 101,89.9L26.75,89.9Q24.006,90.018 23.5,88.825 23.686,90.436 26.85,90.3L101.1,90.3"/><path fill="#8CD5FF" d="M87.65,49.2Q87.65,49.05 87.65,48.9 87.65,45.15 85,42.5 82.4,39.9 78.65,39.9 74.95,39.9 72.3,42.5 70.5,44.3 69.95,46.6L68,46.6Q67.85,46.6 67.65,46.6 65.35,46.6 63.7,48.25 62,49.9 62,52.25 62,52.4 62,52.55 62.1,54.7 63.7,56.25 65.35,57.9 67.65,57.9 67.85,57.9 68,57.9L78.85,57.9Q82.45,57.85 85,55.25 87.55,52.75 87.65,49.2"/><path fill="#64BAFF" d="M85,55.85Q87.65,53.25 87.65,49.5 87.65,49.35 87.65,49.2 87.55,52.75 85,55.25 82.45,57.85 78.85,57.9L68,57.9Q67.85,57.9 67.65,57.9 65.35,57.9 63.7,56.25 62.1,54.7 62,52.55 62,52.7 62,52.85 62,55.2 63.7,56.85 65.35,58.5 67.65,58.5 67.85,58.5 68,58.5L78.85,58.5Q82.45,58.45 85,55.85"/><path fill="url(#radialGradient)" d="M15.7,16.1Q14.85,16.6 14.05,17.35 11.75,19.65 11.7,22.85L11.7,40.25Q11.7,40.95 12.25,41.5 12.85,42.1 13.7,42.1 14.5,42.1 15.1,41.5 15.7,40.95 15.7,40.1L15.7,31.05Q15.7,30.25 16.25,29.7 16.85,29.1 17.7,29.1 18.5,29.1 19.1,29.7 19.7,30.25 19.7,31.05L19.75,37.75Q19.7,37.9 19.7,38.1 19.7,38.95 20.25,39.5 20.85,40.1 21.7,40.1 22.5,40.1 23.1,39.5 23.45,39.15 23.6,38.75 23.7,38.45 23.7,38.15L23.7,29.45Q23.7,28.65 24.25,28.1 24.85,27.5 25.7,27.5 26.5,27.5 27.1,28.1 27.7,28.65 27.7,29.45L27.7,41.75Q27.7,42.6 28.25,43.15 28.85,43.75 29.7,43.75 30.5,43.75 31.1,43.15 31.55,42.7 31.7,42.1 31.7,41.95 31.7,41.8L31.7,33.7Q31.7,32.9 32.25,32.35 32.85,31.75 33.7,31.75 34.5,31.75 35.1,32.35 35.7,32.9 35.7,33.7L35.7,39.75Q35.7,40.6 36.25,41.15 36.85,41.75 37.7,41.75 38.5,41.75 39.1,41.15 39.55,40.7 39.7,40.1 39.7,39.95 39.7,39.8L39.7,15.05 19.5,15.05Q17.4,15.1 15.7,16.1"/><g id="paint" transform="matrix(1 0 0 1 11.55 14.75)"><path fill="#F9C440" d="M23.4,17.3Q24,17.85 24,18.65L24,24.7Q24,25.55 24.55,26.1 25.15,26.7 26,26.7 26.8,26.7 27.4,26.1 27.85,25.65 28,25.05 28,24.9 28,24.75L28,0 7.8,0Q5.7,0.05 4,1.05 3.15,1.55 2.35,2.3 0.05,4.6 0,7.8L0,25.2Q0,25.9 0.55,26.45 1.15,27.05 2,27.05 2.8,27.05 3.4,26.45 4,25.9 4,25.05L4,16Q4,15.2 4.55,14.65 5.15,14.05 6,14.05 6.8,14.05 7.4,14.65 8,15.2 8,16L8.05,22.7Q8,22.85 8,23.05 8,23.9 8.55,24.45 9.15,25.05 10,25.05 10.8,25.05 11.4,24.45 11.75,24.1 11.9,23.7 12,23.4 12,23.1L12,14.4Q12,13.6 12.55,13.05 13.15,12.45 14,12.45 14.8,12.45 15.4,13.05 16,13.6 16,14.4L16,26.7Q16,27.55 16.55,28.1 17.15,28.7 18,28.7 18.8,28.7 19.4,28.1 19.85,27.65 20,27.05 20,26.9 20,26.75L20,18.65Q20,17.85 20.55,17.3 21.15,16.7 22,16.7 22.8,16.7 23.4,17.3"/></g></g></svg>