<?xml version="1.0" encoding="utf-8"?><svg xmlns:xlink="http://www.w3.org/1999/xlink" id="tapet-icon" image-rendering="auto" baseProfile="basic" version="1.1" x="0px" y="0px" width="128" height="128" xmlns="http://www.w3.org/2000/svg"><defs><radialGradient gradientUnits="userSpaceOnUse" color-interpolation="sRGB" r="29.763" cx="32.8" cy="36.9" fx="32.8" fy="36.9" gradientTransform="matrix(1 0 0 1 0 0)" id="radialGradient"><stop stop-color="#000" stop-opacity="0.4" offset="0"/><stop stop-color="#000" stop-opacity="0" offset="1"/></radialGradient><linearGradient gradientUnits="userSpaceOnUse" color-interpolation="sRGB" x1="64" y1="15.15" x2="64" y2="119.15" id="linearGradient"><stop stop-color="#8CD5FF" stop-opacity="1" offset="0"/><stop stop-color="#3689E6" stop-opacity="1" offset="1"/></linearGradient><radialGradient gradientUnits="userSpaceOnUse" color-interpolation="sRGB" r="54.553" cx="64.05" cy="120.65" fx="64.05" fy="120.65" gradientTransform="matrix(1 0 0 0.048 0 114.9)" id="radialGradient1"><stop stop-color="#000" stop-opacity="0.4980392156862745" offset="0"/><stop stop-color="#000" stop-opacity="0" offset="1"/></radialGradient></defs><g id="Scene_1" overflow="visible"><path fill="url(#radialGradient1)" d="M10,120.65Q10,121.65 25.85,122.4 41.65,123.15 64.05,123.15 86.35,123.15 102.15,122.4 118,121.65 118,120.65 118,119.6 102.15,118.85 86.35,118.15 64.05,118.15 41.65,118.15 25.85,118.85 10,119.6 10,120.65"/><path fill="url(#linearGradient)" d="M113.7,17.5Q111.4,15.2 108.2,15.15L19.8,15.15Q16.65,15.2 14.4,17.5 12.05,19.8 12,22.95L12,111.35Q12.05,114.5 14.4,116.8 16.65,119.1 19.8,119.15L108.2,119.15Q111.4,119.1 113.7,116.8 115.95,114.5 116,111.35L116,22.95Q115.95,19.8 113.7,17.5"/><g id="background_inline" transform="matrix(1 0 0 1 12.6 15.7)"><path fill="none" stroke="undefined" stroke-width="2" stroke-linecap="round" stroke-linejoin="round" d="M103,7.75Q102.95,4.6 100.75,2.3 98.45,0.05 95.3,0L7.75,0Q4.6,0.05 2.35,2.3 0.05,4.6 0,7.75L0,95.3Q0.05,98.4 2.35,100.7 4.6,102.95 7.75,103L95.3,103Q98.45,102.95 100.75,100.7 102.95,98.4 103,95.3L103,7.75"/></g><g id="background_outliine" transform="matrix(1 0 0 1 12 15.15)"><path fill="none" stroke="#A4ACDC" stroke-opacity="0.498" stroke-width="2" stroke-linecap="round" stroke-linejoin="round" d="M104,7.8Q103.95,4.6 101.65,2.3 99.35,0.05 96.2,0L7.8,0Q4.65,0.05 2.35,2.3 0.05,4.6 0,7.8L0,96.2Q0.05,99.35 2.35,101.6 4.65,103.95 7.8,104L96.2,104Q99.35,103.95 101.65,101.6 103.95,99.35 104,96.2L104,7.8"/></g><path fill="#FFF" d="M79.2,48.55Q75.65,42.85 71.7,48.55L51.85,80.55 45.95,72.9Q42.5,67.35 38.6,72.7L19.35,97.7Q18.95,98.4 18.85,99 18.4,101.2 22.6,101.05L104.25,101.05Q107.3,101.15 107.85,99.95 108.2,99.05 107.4,97.45L79.2,48.55"/><path fill="#D4D4D4" d="M22.6,101.05Q18.4,101.2 18.85,99 17.95,101.6 22.5,101.45L104.15,101.45Q107.6,101.6 107.85,99.95 107.3,101.15 104.25,101.05L22.6,101.05"/><path fill="#64BAFF" d="M103.85,69.2Q100.05,73.1 94.65,73.15L78.35,73.15Q78.15,73.15 77.85,73.15 74.4,73.15 71.9,70.7 69.5,68.35 69.35,65.15 69.35,65.35 69.35,65.6 69.35,69.1 71.9,71.6 74.4,74.05 77.85,74.05 78.15,74.05 78.35,74.05L94.65,74.05Q100.05,74 103.85,70.1 107.85,66.2 107.85,60.55 107.85,60.35 107.85,60.1 107.7,65.45 103.85,69.2"/><path fill="#8CD5FF" d="M94.65,73.15Q100.05,73.1 103.85,69.2 107.7,65.45 107.85,60.1 107.85,59.9 107.85,59.65 107.85,54.05 103.85,50.05 99.95,46.15 94.35,46.15 88.8,46.15 84.8,50.05 82.1,52.75 81.3,56.2L78.35,56.2Q78.15,56.2 77.85,56.2 74.4,56.2 71.9,58.7 69.35,61.15 69.35,64.7 69.35,64.9 69.35,65.15 69.5,68.35 71.9,70.7 74.4,73.15 77.85,73.15 78.15,73.15 78.35,73.15L94.65,73.15"/><path fill="url(#radialGradient)" d="M46.9,41.35Q47.8,42.15 47.8,43.35L47.8,52.45Q47.8,53.7 48.65,54.55 49.55,55.45 50.8,55.45 52,55.45 52.9,54.55 53.6,53.85 53.8,52.95 53.8,52.75 53.8,52.5L53.75,14.15 23.5,15.4Q20.35,15.45 17.8,16.95 16.55,17.7 15.35,18.85 11.9,22.3 11.8,27.1L11.8,53.2Q11.8,54.25 12.65,55.05 13.55,55.95 14.8,55.95 16,55.95 16.9,55.05 17.8,54.25 17.8,52.95L17.8,39.4Q17.8,38.2 18.65,37.35 19.55,36.45 20.8,36.45 22,36.45 22.9,37.35 23.8,38.2 23.8,39.4L23.9,49.45Q23.8,49.65 23.8,49.95 23.8,51.25 24.65,52.05 25.55,52.95 26.8,52.95 28,52.95 28.9,52.05 29.45,51.55 29.65,50.95 29.8,50.5 29.8,50.05L29.8,37Q29.8,35.8 30.65,34.95 31.55,34.05 32.8,34.05 34,34.05 34.9,34.95 35.8,35.8 35.8,37L35.8,55.45Q35.8,56.7 36.65,57.55 37.55,58.45 38.8,58.45 40,58.45 40.9,57.55 41.6,56.85 41.8,55.95 41.8,55.75 41.8,55.5L41.8,43.35Q41.8,42.15 42.65,41.35 43.55,40.45 44.8,40.45 46,40.45 46.9,41.35"/><g id="dripping_paint" transform="matrix(1 0 0 1 11.05 14.15)"><path fill="#F9C440" d="M42,37.15L42,0 7.8,0Q4.65,0.05 2.35,2.3 0.05,4.6 0,7.8L0,37.8Q0,38.85 0.85,39.7 1.75,40.6 3,40.6 4.2,40.6 5.1,39.7 6,38.85 6,37.6L6,24Q6,22.8 6.85,22 7.75,21.1 9,21.1 10.2,21.1 11.1,22 12,22.8 12,24L12.1,34.05Q12,34.3 12,34.6 12,35.85 12.85,36.7 13.75,37.6 15,37.6 16.2,37.6 17.1,36.7 17.65,36.15 17.85,35.55 18,35.1 18,34.65L18,21.6Q18,20.4 18.85,19.6 19.75,18.7 21,18.7 22.2,18.7 23.1,19.6 24,20.4 24,21.6L24,40.05Q24,41.35 24.85,42.15 25.75,43.05 27,43.05 28.2,43.05 29.1,42.15 29.8,41.5 30,40.6 30,40.35 30,40.15L30,28Q30,26.8 30.85,25.95 31.75,25.05 33,25.05 34.2,25.05 35.1,25.95 36,26.8 36,28L36,37.05Q36,38.35 36.85,39.15 37.75,40.05 39,40.05 40.2,40.05 41.1,39.15 41.8,38.5 42,37.6 42,37.35 42,37.15"/></g></g></svg>