<?xml version="1.0" encoding="UTF-8"?>
<svg xmlns="http://www.w3.org/2000/svg" xmlns:xlink="http://www.w3.org/1999/xlink" width="16px" height="16px" viewBox="0 0 16 16" version="1.1">
<defs>
<radialGradient id="radial0" gradientUnits="userSpaceOnUse" cx="16.049999" cy="30.299999" fx="16.049999" fy="30.299999" r="13.644" gradientTransform="matrix(0.5,0,0,0.024,0,14.425)">
<stop offset="0" style="stop-color:rgb(0%,0%,0%);stop-opacity:0.498039;"/>
<stop offset="1" style="stop-color:rgb(0%,0%,0%);stop-opacity:0;"/>
</radialGradient>
<linearGradient id="linear0" gradientUnits="userSpaceOnUse" x1="16.049999" y1="3.95" x2="16.049999" y2="29.950001" gradientTransform="matrix(0.5,0,0,0.5,0,0)">
<stop offset="0" style="stop-color:rgb(54.901963%,83.529413%,100%);stop-opacity:1;"/>
<stop offset="1" style="stop-color:rgb(21.176471%,53.725493%,90.196079%);stop-opacity:1;"/>
</linearGradient>
<radialGradient id="radial1" gradientUnits="userSpaceOnUse" cx="9.1" cy="10.3" fx="9.1" fy="10.3" r="8.931" gradientTransform="matrix(0.5,0,0,0.5,0,0)">
<stop offset="0" style="stop-color:rgb(0%,0%,0%);stop-opacity:0.4;"/>
<stop offset="1" style="stop-color:rgb(0%,0%,0%);stop-opacity:0;"/>
</radialGradient>
</defs>
<g id="surface1">
<path style=" stroke:none;fill-rule:nonzero;fill:url(#radial0);" d="M 12.800781 14.925781 C 11.484375 14.875 9.890625 14.851562 8.023438 14.851562 C 6.160156 14.851562 4.566406 14.875 3.25 14.925781 C 1.933594 14.992188 1.273438 15.066406 1.273438 15.148438 C 1.273438 15.234375 1.933594 15.308594 3.25 15.375 C 4.566406 15.441406 6.160156 15.476562 8.023438 15.476562 C 9.890625 15.476562 11.484375 15.441406 12.800781 15.375 C 14.117188 15.308594 14.773438 15.234375 14.773438 15.148438 C 14.773438 15.066406 14.117188 14.992188 12.800781 14.925781 "/>
<path style=" stroke:none;fill-rule:nonzero;fill:url(#linear0);" d="M 14.523438 2.949219 C 14.523438 2.683594 14.433594 2.457031 14.25 2.273438 C 14.050781 2.074219 13.816406 1.976562 13.550781 1.976562 L 2.5 1.976562 C 2.234375 1.976562 2.007812 2.074219 1.824219 2.273438 C 1.625 2.457031 1.523438 2.683594 1.523438 2.949219 L 1.523438 14 C 1.523438 14.265625 1.625 14.492188 1.824219 14.675781 C 2.007812 14.875 2.234375 14.976562 2.5 14.976562 L 13.550781 14.976562 C 13.816406 14.976562 14.050781 14.875 14.25 14.675781 C 14.433594 14.492188 14.523438 14.265625 14.523438 14 L 14.523438 2.949219 "/>
<path style="fill:none;stroke-width:4;stroke-linecap:round;stroke-linejoin:round;stroke:rgb(64.313728%,67.450982%,86.274511%);stroke-opacity:0.498;stroke-miterlimit:4;" d="M 103.9875 7.79375 C 103.95625 5.66875 103.175 3.825 101.64375 2.29375 C 100.1125 0.79375 98.3 0.0437498 96.20625 0.0124998 L 7.8 0.0124998 C 5.70625 0.0437498 3.89375 0.79375 2.3625 2.29375 C 0.83125 3.825 0.0187502 5.66875 -0.0124998 7.79375 L -0.0124998 96.2 C 0.0187502 98.29375 0.83125 100.10625 2.3625 101.60625 C 3.89375 103.16875 5.70625 103.98125 7.8 104.0125 L 96.20625 104.0125 C 98.3 103.98125 100.1125 103.16875 101.64375 101.60625 C 103.175 100.10625 103.95625 98.29375 103.9875 96.2 L 103.9875 7.79375 " transform="matrix(0.125,0,0,0.125,1.525,1.975)"/>
<path style=" stroke:none;fill-rule:nonzero;fill:rgb(100%,100%,100%);fill-opacity:1;" d="M 8.585938 5.398438 C 8.320312 5.121094 8.050781 5.195312 7.773438 5.625 L 2.773438 12.074219 C 2.742188 12.125 2.714844 12.175781 2.699219 12.226562 C 2.667969 12.359375 2.726562 12.441406 2.875 12.476562 C 2.910156 12.492188 2.957031 12.5 3.023438 12.5 L 3.050781 12.5 C 3.089844 12.5 3.132812 12.5 3.175781 12.5 L 12.023438 12.5 C 12.308594 12.515625 12.464844 12.476562 12.5 12.375 C 12.535156 12.273438 12.515625 12.160156 12.449219 12.023438 L 8.75 5.625 C 8.695312 5.535156 8.640625 5.460938 8.585938 5.398438 "/>
<path style=" stroke:none;fill-rule:nonzero;fill:rgb(83.137256%,83.137256%,83.137256%);fill-opacity:1;" d="M 8.585938 5.398438 C 8.640625 5.460938 8.695312 5.535156 8.75 5.625 L 12.449219 12.023438 C 12.515625 12.160156 12.535156 12.273438 12.5 12.375 C 12.464844 12.476562 12.308594 12.515625 12.023438 12.5 L 3.175781 12.5 C 3.132812 12.5 3.089844 12.5 3.050781 12.5 C 3 12.550781 2.964844 12.601562 2.949219 12.648438 C 2.933594 12.785156 3 12.867188 3.148438 12.898438 C 3.183594 12.917969 3.242188 12.925781 3.324219 12.925781 C 3.375 12.925781 3.425781 12.925781 3.476562 12.925781 L 12.75 12.925781 C 13.050781 12.941406 13.214844 12.898438 13.25 12.800781 C 13.285156 12.699219 13.265625 12.582031 13.199219 12.449219 L 9.300781 5.726562 C 9.070312 5.339844 8.832031 5.230469 8.585938 5.398438 "/>
<path style=" stroke:none;fill-rule:nonzero;fill:rgb(54.901963%,83.529413%,100%);fill-opacity:1;" d="M 13.125 4.800781 C 12.742188 4.417969 12.273438 4.226562 11.726562 4.226562 C 11.160156 4.226562 10.675781 4.417969 10.273438 4.800781 C 10.007812 5.066406 9.839844 5.375 9.773438 5.726562 L 9.324219 5.726562 C 9.292969 5.726562 9.257812 5.726562 9.226562 5.726562 C 8.890625 5.726562 8.601562 5.851562 8.351562 6.101562 C 8.101562 6.351562 7.976562 6.648438 7.976562 7 C 7.976562 7.035156 7.976562 7.058594 7.976562 7.074219 C 7.992188 7.390625 8.117188 7.667969 8.351562 7.898438 C 8.601562 8.148438 8.890625 8.273438 9.226562 8.273438 C 9.257812 8.273438 9.292969 8.273438 9.324219 8.273438 L 11.75 8.273438 C 12.285156 8.273438 12.742188 8.074219 13.125 7.675781 C 13.507812 7.308594 13.707031 6.875 13.726562 6.375 C 13.726562 6.359375 13.726562 6.339844 13.726562 6.324219 C 13.726562 6.308594 13.726562 6.273438 13.726562 6.226562 C 13.726562 5.675781 13.523438 5.199219 13.125 4.800781 "/>
<path style=" stroke:none;fill-rule:nonzero;fill:rgb(39.215687%,72.941178%,100%);fill-opacity:1;" d="M 13.125 7.675781 C 12.742188 8.074219 12.285156 8.273438 11.75 8.273438 L 9.324219 8.273438 C 9.292969 8.273438 9.257812 8.273438 9.226562 8.273438 C 8.890625 8.273438 8.601562 8.148438 8.351562 7.898438 C 8.117188 7.667969 7.992188 7.390625 7.976562 7.074219 C 7.976562 7.089844 7.976562 7.109375 7.976562 7.125 C 7.976562 7.492188 8.101562 7.792969 8.351562 8.023438 C 8.601562 8.273438 8.890625 8.398438 9.226562 8.398438 C 9.257812 8.398438 9.292969 8.398438 9.324219 8.398438 L 11.75 8.398438 C 12.285156 8.398438 12.742188 8.207031 13.125 7.824219 C 13.523438 7.425781 13.726562 6.941406 13.726562 6.375 C 13.707031 6.875 13.507812 7.308594 13.125 7.675781 "/>
<path style=" stroke:none;fill-rule:nonzero;fill:url(#radial1);" d="M 6.675781 5.800781 C 6.757812 5.882812 6.800781 5.984375 6.800781 6.101562 L 6.800781 7.449219 C 6.800781 7.582031 6.839844 7.691406 6.925781 7.773438 C 7.023438 7.859375 7.132812 7.898438 7.25 7.898438 C 7.367188 7.898438 7.476562 7.859375 7.574219 7.773438 C 7.640625 7.691406 7.683594 7.617188 7.699219 7.550781 C 7.699219 7.515625 7.699219 7.492188 7.699219 7.476562 L 7.699219 1.726562 L 3.175781 1.898438 C 2.859375 1.898438 2.566406 1.984375 2.300781 2.148438 C 2.183594 2.214844 2.066406 2.300781 1.949219 2.398438 C 1.601562 2.765625 1.417969 3.191406 1.398438 3.675781 L 1.398438 7.574219 C 1.398438 7.675781 1.441406 7.765625 1.523438 7.851562 C 1.625 7.949219 1.734375 8 1.851562 8 C 1.964844 8 2.074219 7.949219 2.175781 7.851562 C 2.257812 7.765625 2.300781 7.667969 2.300781 7.550781 L 2.300781 5.5 C 2.300781 5.382812 2.339844 5.285156 2.425781 5.199219 C 2.523438 5.101562 2.632812 5.050781 2.75 5.050781 C 2.867188 5.050781 2.976562 5.101562 3.074219 5.199219 C 3.160156 5.285156 3.199219 5.382812 3.199219 5.5 L 3.226562 7 C 3.207031 7.015625 3.199219 7.050781 3.199219 7.101562 C 3.199219 7.214844 3.242188 7.316406 3.324219 7.398438 C 3.425781 7.5 3.535156 7.550781 3.648438 7.550781 C 3.765625 7.550781 3.875 7.5 3.976562 7.398438 C 4.023438 7.351562 4.058594 7.300781 4.074219 7.25 C 4.089844 7.199219 4.101562 7.148438 4.101562 7.101562 L 4.101562 5.148438 C 4.101562 5.015625 4.140625 4.917969 4.226562 4.851562 C 4.324219 4.75 4.433594 4.699219 4.550781 4.699219 C 4.667969 4.699219 4.773438 4.75 4.875 4.851562 C 4.957031 4.917969 5 5.015625 5 5.148438 L 5 7.898438 C 5 8.035156 5.042969 8.140625 5.125 8.226562 C 5.226562 8.308594 5.332031 8.351562 5.449219 8.351562 C 5.566406 8.351562 5.675781 8.308594 5.773438 8.226562 C 5.839844 8.140625 5.882812 8.066406 5.898438 8 C 5.898438 7.964844 5.898438 7.941406 5.898438 7.925781 L 5.898438 6.101562 C 5.898438 5.984375 5.941406 5.882812 6.023438 5.800781 C 6.125 5.699219 6.234375 5.648438 6.351562 5.648438 C 6.464844 5.648438 6.574219 5.699219 6.675781 5.800781 "/>
<path style=" stroke:none;fill-rule:nonzero;fill:rgb(97.647059%,76.862746%,25.098041%);fill-opacity:1;" d="M 7.574219 7.296875 L 7.574219 1.726562 L 2.445312 1.726562 C 2.128906 1.730469 1.859375 1.84375 1.628906 2.070312 C 1.398438 2.300781 1.28125 2.574219 1.273438 2.894531 L 1.273438 7.394531 C 1.273438 7.5 1.316406 7.59375 1.402344 7.679688 C 1.492188 7.769531 1.601562 7.816406 1.726562 7.816406 C 1.84375 7.816406 1.949219 7.769531 2.039062 7.679688 C 2.128906 7.59375 2.175781 7.488281 2.175781 7.363281 L 2.175781 5.324219 C 2.175781 5.203125 2.21875 5.105469 2.300781 5.023438 C 2.390625 4.933594 2.5 4.890625 2.625 4.890625 C 2.746094 4.890625 2.851562 4.933594 2.941406 5.023438 C 3.03125 5.105469 3.074219 5.203125 3.074219 5.324219 L 3.089844 6.832031 C 3.078125 6.859375 3.074219 6.886719 3.074219 6.914062 C 3.074219 7.039062 3.117188 7.144531 3.203125 7.230469 C 3.292969 7.320312 3.398438 7.363281 3.523438 7.363281 C 3.644531 7.363281 3.75 7.320312 3.839844 7.230469 C 3.894531 7.175781 3.933594 7.117188 3.953125 7.058594 C 3.96875 7.011719 3.976562 6.96875 3.976562 6.921875 L 3.976562 4.964844 C 3.976562 4.84375 4.015625 4.746094 4.101562 4.664062 C 4.191406 4.574219 4.300781 4.53125 4.425781 4.53125 C 4.546875 4.53125 4.648438 4.574219 4.738281 4.664062 C 4.828125 4.746094 4.875 4.84375 4.875 4.964844 L 4.875 7.734375 C 4.875 7.863281 4.917969 7.96875 5.003906 8.046875 C 5.09375 8.136719 5.199219 8.183594 5.324219 8.183594 C 5.445312 8.183594 5.550781 8.136719 5.640625 8.046875 C 5.710938 7.984375 5.753906 7.90625 5.773438 7.816406 C 5.773438 7.789062 5.773438 7.765625 5.773438 7.746094 L 5.773438 5.925781 C 5.773438 5.804688 5.816406 5.703125 5.902344 5.617188 C 5.992188 5.527344 6.101562 5.484375 6.226562 5.484375 C 6.34375 5.484375 6.449219 5.527344 6.539062 5.617188 C 6.628906 5.703125 6.675781 5.804688 6.675781 5.925781 L 6.675781 7.28125 C 6.675781 7.414062 6.71875 7.515625 6.800781 7.597656 C 6.890625 7.6875 7 7.734375 7.125 7.734375 C 7.246094 7.734375 7.351562 7.6875 7.441406 7.597656 C 7.511719 7.53125 7.554688 7.453125 7.574219 7.363281 C 7.574219 7.339844 7.574219 7.316406 7.574219 7.296875 "/>
</g>
</svg>
