<?xml version="1.0" encoding="UTF-8"?>
<svg xmlns="http://www.w3.org/2000/svg" xmlns:xlink="http://www.w3.org/1999/xlink" width="24px" height="24px" viewBox="0 0 24 24" version="1.1">
<defs>
<radialGradient id="radial0" gradientUnits="userSpaceOnUse" cx="16.049999" cy="30.299999" fx="16.049999" fy="30.299999" r="13.644" gradientTransform="matrix(0.75,0,0,0.036,0,21.6375)">
<stop offset="0" style="stop-color:rgb(0%,0%,0%);stop-opacity:0.498039;"/>
<stop offset="1" style="stop-color:rgb(0%,0%,0%);stop-opacity:0;"/>
</radialGradient>
<linearGradient id="linear0" gradientUnits="userSpaceOnUse" x1="16.049999" y1="3.95" x2="16.049999" y2="29.950001" gradientTransform="matrix(0.75,0,0,0.75,0,0)">
<stop offset="0" style="stop-color:rgb(54.901963%,83.529413%,100%);stop-opacity:1;"/>
<stop offset="1" style="stop-color:rgb(21.176471%,53.725493%,90.196079%);stop-opacity:1;"/>
</linearGradient>
<radialGradient id="radial1" gradientUnits="userSpaceOnUse" cx="9.1" cy="10.3" fx="9.1" fy="10.3" r="8.931" gradientTransform="matrix(0.75,0,0,0.75,0,0)">
<stop offset="0" style="stop-color:rgb(0%,0%,0%);stop-opacity:0.4;"/>
<stop offset="1" style="stop-color:rgb(0%,0%,0%);stop-opacity:0;"/>
</radialGradient>
</defs>
<g id="surface1">
<path style=" stroke:none;fill-rule:nonzero;fill:url(#radial0);" d="M 19.199219 22.386719 C 17.226562 22.3125 14.835938 22.273438 12.039062 22.273438 C 9.238281 22.273438 6.851562 22.3125 4.875 22.386719 C 2.898438 22.488281 1.914062 22.601562 1.914062 22.726562 C 1.914062 22.851562 2.898438 22.960938 4.875 23.0625 C 6.851562 23.164062 9.238281 23.210938 12.039062 23.210938 C 14.835938 23.210938 17.226562 23.164062 19.199219 23.0625 C 21.175781 22.960938 22.164062 22.851562 22.164062 22.726562 C 22.164062 22.601562 21.175781 22.488281 19.199219 22.386719 "/>
<path style=" stroke:none;fill-rule:nonzero;fill:url(#linear0);" d="M 21.789062 4.425781 C 21.789062 4.023438 21.648438 3.6875 21.375 3.414062 C 21.074219 3.113281 20.726562 2.960938 20.324219 2.960938 L 3.75 2.960938 C 3.351562 2.960938 3.011719 3.113281 2.738281 3.414062 C 2.4375 3.6875 2.289062 4.023438 2.289062 4.425781 L 2.289062 21 C 2.289062 21.398438 2.4375 21.738281 2.738281 22.011719 C 3.011719 22.3125 3.351562 22.460938 3.75 22.460938 L 20.324219 22.460938 C 20.726562 22.460938 21.074219 22.3125 21.375 22.011719 C 21.648438 21.738281 21.789062 21.398438 21.789062 21 L 21.789062 4.425781 "/>
<path style="fill:none;stroke-width:4;stroke-linecap:round;stroke-linejoin:round;stroke:rgb(64.313728%,67.450982%,86.274511%);stroke-opacity:0.498;stroke-miterlimit:4;" d="M 104.008334 7.804166 C 103.966667 5.658333 103.175 3.825 101.654167 2.304166 C 100.1125 0.804166 98.3 0.0333331 96.195834 -0.00833352 L 7.8 -0.00833352 C 5.695834 0.0333331 3.883334 0.804166 2.341667 2.304166 C 0.820834 3.825 0.0291669 5.658333 0.00833352 7.804166 L 0.00833352 96.2 C 0.0291669 98.304166 0.820834 100.095833 2.341667 101.595833 C 3.883334 103.158333 5.695834 103.970833 7.8 103.991666 L 96.195834 103.991666 C 98.3 103.970833 100.1125 103.158333 101.654167 101.595833 C 103.175 100.095833 103.966667 98.304166 104.008334 96.2 L 104.008334 7.804166 " transform="matrix(0.1875,0,0,0.1875,2.2875,2.9625)"/>
<path style=" stroke:none;fill-rule:nonzero;fill:rgb(100%,100%,100%);fill-opacity:1;" d="M 12.882812 8.101562 C 12.484375 7.683594 12.078125 7.796875 11.664062 8.4375 L 4.164062 18.113281 C 4.113281 18.1875 4.074219 18.261719 4.050781 18.335938 C 4 18.539062 4.085938 18.664062 4.3125 18.710938 C 4.363281 18.738281 4.4375 18.75 4.539062 18.75 L 4.574219 18.75 C 4.636719 18.75 4.699219 18.75 4.761719 18.75 L 18.039062 18.75 C 18.460938 18.773438 18.699219 18.710938 18.75 18.5625 C 18.800781 18.414062 18.773438 18.238281 18.675781 18.039062 L 13.125 8.4375 C 13.042969 8.304688 12.960938 8.191406 12.882812 8.101562 "/>
<path style=" stroke:none;fill-rule:nonzero;fill:rgb(83.137256%,83.137256%,83.137256%);fill-opacity:1;" d="M 12.882812 8.101562 C 12.960938 8.191406 13.042969 8.304688 13.125 8.4375 L 18.675781 18.039062 C 18.773438 18.238281 18.800781 18.414062 18.75 18.5625 C 18.699219 18.710938 18.460938 18.773438 18.039062 18.75 L 4.761719 18.75 C 4.699219 18.75 4.636719 18.75 4.574219 18.75 C 4.5 18.824219 4.449219 18.898438 4.425781 18.976562 C 4.398438 19.175781 4.5 19.300781 4.726562 19.351562 C 4.773438 19.375 4.863281 19.386719 4.988281 19.386719 C 5.0625 19.386719 5.136719 19.386719 5.210938 19.386719 L 19.125 19.386719 C 19.574219 19.414062 19.824219 19.351562 19.875 19.199219 C 19.925781 19.050781 19.898438 18.875 19.800781 18.675781 L 13.949219 8.585938 C 13.605469 8.007812 13.25 7.847656 12.882812 8.101562 "/>
<path style=" stroke:none;fill-rule:nonzero;fill:rgb(54.901963%,83.529413%,100%);fill-opacity:1;" d="M 19.6875 7.199219 C 19.113281 6.625 18.414062 6.335938 17.585938 6.335938 C 16.738281 6.335938 16.011719 6.625 15.414062 7.199219 C 15.011719 7.601562 14.761719 8.0625 14.664062 8.585938 L 13.988281 8.585938 C 13.9375 8.585938 13.886719 8.585938 13.835938 8.585938 C 13.335938 8.585938 12.898438 8.773438 12.523438 9.148438 C 12.148438 9.523438 11.960938 9.976562 11.960938 10.5 C 11.960938 10.550781 11.960938 10.585938 11.960938 10.613281 C 11.988281 11.085938 12.175781 11.5 12.523438 11.851562 C 12.898438 12.226562 13.335938 12.414062 13.835938 12.414062 C 13.886719 12.414062 13.9375 12.414062 13.988281 12.414062 L 17.625 12.414062 C 18.425781 12.414062 19.113281 12.113281 19.6875 11.511719 C 20.261719 10.960938 20.5625 10.3125 20.585938 9.5625 C 20.585938 9.539062 20.585938 9.511719 20.585938 9.488281 C 20.585938 9.460938 20.585938 9.414062 20.585938 9.335938 C 20.585938 8.511719 20.289062 7.800781 19.6875 7.199219 "/>
<path style=" stroke:none;fill-rule:nonzero;fill:rgb(39.215687%,72.941178%,100%);fill-opacity:1;" d="M 19.6875 11.511719 C 19.113281 12.113281 18.425781 12.414062 17.625 12.414062 L 13.988281 12.414062 C 13.9375 12.414062 13.886719 12.414062 13.835938 12.414062 C 13.335938 12.414062 12.898438 12.226562 12.523438 11.851562 C 12.175781 11.5 11.988281 11.085938 11.960938 10.613281 C 11.960938 10.636719 11.960938 10.664062 11.960938 10.6875 C 11.960938 11.238281 12.148438 11.6875 12.523438 12.039062 C 12.898438 12.414062 13.335938 12.601562 13.835938 12.601562 C 13.886719 12.601562 13.9375 12.601562 13.988281 12.601562 L 17.625 12.601562 C 18.425781 12.601562 19.113281 12.3125 19.6875 11.738281 C 20.289062 11.136719 20.585938 10.414062 20.585938 9.5625 C 20.5625 10.3125 20.261719 10.960938 19.6875 11.511719 "/>
<path style=" stroke:none;fill-rule:nonzero;fill:url(#radial1);" d="M 10.011719 8.699219 C 10.136719 8.824219 10.199219 8.976562 10.199219 9.148438 L 10.199219 11.175781 C 10.199219 11.375 10.261719 11.539062 10.386719 11.664062 C 10.539062 11.789062 10.699219 11.851562 10.875 11.851562 C 11.050781 11.851562 11.210938 11.789062 11.363281 11.664062 C 11.460938 11.539062 11.523438 11.425781 11.550781 11.324219 C 11.550781 11.273438 11.550781 11.238281 11.550781 11.210938 L 11.550781 2.585938 L 4.761719 2.851562 C 4.289062 2.851562 3.851562 2.976562 3.449219 3.226562 C 3.273438 3.324219 3.101562 3.449219 2.925781 3.601562 C 2.398438 4.148438 2.125 4.789062 2.101562 5.511719 L 2.101562 11.363281 C 2.101562 11.511719 2.164062 11.648438 2.289062 11.773438 C 2.4375 11.925781 2.601562 12 2.773438 12 C 2.949219 12 3.113281 11.925781 3.261719 11.773438 C 3.386719 11.648438 3.449219 11.5 3.449219 11.324219 L 3.449219 8.25 C 3.449219 8.074219 3.511719 7.925781 3.636719 7.800781 C 3.789062 7.648438 3.949219 7.574219 4.125 7.574219 C 4.300781 7.574219 4.460938 7.648438 4.613281 7.800781 C 4.738281 7.925781 4.800781 8.074219 4.800781 8.25 L 4.835938 10.5 C 4.8125 10.523438 4.800781 10.574219 4.800781 10.648438 C 4.800781 10.824219 4.863281 10.976562 4.988281 11.101562 C 5.136719 11.25 5.300781 11.324219 5.476562 11.324219 C 5.648438 11.324219 5.8125 11.25 5.960938 11.101562 C 6.039062 11.023438 6.085938 10.949219 6.113281 10.875 C 6.136719 10.800781 6.148438 10.726562 6.148438 10.648438 L 6.148438 7.726562 C 6.148438 7.523438 6.210938 7.375 6.335938 7.273438 C 6.488281 7.125 6.648438 7.050781 6.824219 7.050781 C 7 7.050781 7.164062 7.125 7.3125 7.273438 C 7.4375 7.375 7.5 7.523438 7.5 7.726562 L 7.5 11.851562 C 7.5 12.050781 7.5625 12.210938 7.6875 12.335938 C 7.835938 12.460938 8 12.523438 8.175781 12.523438 C 8.351562 12.523438 8.511719 12.460938 8.664062 12.335938 C 8.761719 12.210938 8.824219 12.101562 8.851562 12 C 8.851562 11.949219 8.851562 11.914062 8.851562 11.886719 L 8.851562 9.148438 C 8.851562 8.976562 8.914062 8.824219 9.039062 8.699219 C 9.1875 8.550781 9.351562 8.476562 9.523438 8.476562 C 9.699219 8.476562 9.863281 8.550781 10.011719 8.699219 "/>
<path style=" stroke:none;fill-rule:nonzero;fill:rgb(97.647059%,76.862746%,25.098041%);fill-opacity:1;" d="M 11.363281 10.945312 L 11.363281 2.585938 L 3.667969 2.585938 C 3.195312 2.59375 2.785156 2.765625 2.441406 3.105469 C 2.097656 3.449219 1.921875 3.863281 1.914062 4.34375 L 1.914062 11.09375 C 1.914062 11.25 1.976562 11.390625 2.105469 11.519531 C 2.238281 11.65625 2.398438 11.722656 2.585938 11.722656 C 2.765625 11.722656 2.925781 11.65625 3.058594 11.519531 C 3.195312 11.390625 3.261719 11.234375 3.261719 11.046875 L 3.261719 7.988281 C 3.261719 7.808594 3.328125 7.65625 3.453125 7.539062 C 3.589844 7.402344 3.75 7.335938 3.9375 7.335938 C 4.117188 7.335938 4.273438 7.402344 4.410156 7.539062 C 4.546875 7.65625 4.613281 7.808594 4.613281 7.988281 L 4.636719 10.25 C 4.621094 10.285156 4.613281 10.328125 4.613281 10.371094 C 4.613281 10.558594 4.675781 10.71875 4.804688 10.84375 C 4.9375 10.980469 5.101562 11.046875 5.289062 11.046875 C 5.46875 11.046875 5.625 10.980469 5.761719 10.84375 C 5.84375 10.761719 5.898438 10.675781 5.929688 10.585938 C 5.953125 10.519531 5.960938 10.453125 5.960938 10.382812 L 5.960938 7.449219 C 5.960938 7.265625 6.027344 7.117188 6.152344 6.996094 C 6.289062 6.863281 6.449219 6.796875 6.636719 6.796875 C 6.816406 6.796875 6.976562 6.863281 7.109375 6.996094 C 7.246094 7.117188 7.3125 7.265625 7.3125 7.449219 L 7.3125 11.597656 C 7.3125 11.792969 7.375 11.953125 7.503906 12.070312 C 7.640625 12.207031 7.800781 12.273438 7.988281 12.273438 C 8.167969 12.273438 8.324219 12.207031 8.460938 12.070312 C 8.566406 11.972656 8.632812 11.859375 8.664062 11.722656 C 8.664062 11.683594 8.664062 11.652344 8.664062 11.621094 L 8.664062 8.886719 C 8.664062 8.707031 8.726562 8.554688 8.855469 8.425781 C 8.988281 8.292969 9.148438 8.222656 9.335938 8.222656 C 9.515625 8.222656 9.675781 8.292969 9.808594 8.425781 C 9.945312 8.554688 10.011719 8.707031 10.011719 8.886719 L 10.011719 10.921875 C 10.011719 11.117188 10.078125 11.277344 10.203125 11.394531 C 10.339844 11.53125 10.5 11.597656 10.6875 11.597656 C 10.867188 11.597656 11.023438 11.53125 11.160156 11.394531 C 11.265625 11.296875 11.332031 11.183594 11.363281 11.046875 C 11.363281 11.011719 11.363281 10.976562 11.363281 10.945312 "/>
</g>
</svg>
