<?xml version="1.0" encoding="utf-8"?><svg xmlns:xlink="http://www.w3.org/1999/xlink" id="tapet-icon-32" image-rendering="auto" baseProfile="basic" version="1.1" x="0px" y="0px" width="32" height="32" xmlns="http://www.w3.org/2000/svg"><defs><radialGradient gradientUnits="userSpaceOnUse" color-interpolation="sRGB" r="8.931" cx="9.1" cy="10.3" fx="9.1" fy="10.3" gradientTransform="matrix(1 0 0 1 0 0)" id="radialGradient"><stop stop-color="#000" stop-opacity="0.4" offset="0"/><stop stop-color="#000" stop-opacity="0" offset="1"/></radialGradient><linearGradient gradientUnits="userSpaceOnUse" color-interpolation="sRGB" x1="16.05" y1="3.95" x2="16.05" y2="29.95" id="linearGradient"><stop stop-color="#8CD5FF" stop-opacity="1" offset="0"/><stop stop-color="#3689E6" stop-opacity="1" offset="1"/></linearGradient><radialGradient gradientUnits="userSpaceOnUse" color-interpolation="sRGB" r="13.644" cx="16.05" cy="30.3" fx="16.05" fy="30.3" gradientTransform="matrix(1 0 0 0.048 0 28.85)" id="radialGradient1"><stop stop-color="#000" stop-opacity="0.4980392156862745" offset="0"/><stop stop-color="#000" stop-opacity="0" offset="1"/></radialGradient></defs><g id="Scene_1" overflow="visible"><path fill="url(#radialGradient1)" d="M25.6,29.85Q21.65,29.7 16.05,29.7 10.45,29.7 6.5,29.85 2.55,30.05 2.55,30.3 2.55,30.55 6.5,30.75 10.45,30.95 16.05,30.95 21.65,30.95 25.6,30.75 29.55,30.55 29.55,30.3 29.55,30.05 25.6,29.85"/><path fill="url(#linearGradient)" d="M29.05,5.9Q29.05,5.1 28.5,4.55 27.9,3.95 27.1,3.95L5,3.95Q4.2,3.95 3.65,4.55 3.05,5.1 3.05,5.9L3.05,28Q3.05,28.8 3.65,29.35 4.2,29.95 5,29.95L27.1,29.95Q27.9,29.95 28.5,29.35 29.05,28.8 29.05,28L29.05,5.9"/><g id="background_inline" transform="matrix(0.25 0 0 0.25 3.2 4.1)"><path fill="none" stroke="undefined" stroke-width="4" stroke-linecap="round" stroke-linejoin="round" d="M103,7.75Q102.95,4.6 100.75,2.3 98.45,0.05 95.3,0L7.75,0Q4.6,0.05 2.35,2.3 0.05,4.6 0,7.75L0,95.3Q0.05,98.4 2.35,100.7 4.6,102.95 7.75,103L95.3,103Q98.45,102.95 100.75,100.7 102.95,98.4 103,95.3L103,7.75"/></g><g id="background_outliine" transform="matrix(0.25 0 0 0.25 3.05 3.95)"><path fill="none" stroke="#A4ACDC" stroke-opacity="0.498" stroke-width="4" stroke-linecap="round" stroke-linejoin="round" d="M104,7.8Q103.95,4.6 101.65,2.3 99.35,0.05 96.2,0L7.8,0Q4.65,0.05 2.35,2.3 0.05,4.6 0,7.8L0,96.2Q0.05,99.35 2.35,101.6 4.65,103.95 7.8,104L96.2,104Q99.35,103.95 101.65,101.6 103.95,99.35 104,96.2L104,7.8"/></g><path fill="#FFF" d="M17.175,10.8Q16.379,9.965 15.55,11.25L5.55,24.15Q5.45,24.3 5.4,24.45 5.3,24.85 5.75,24.95 5.85,25 6.05,25L6.1,25Q6.225,25 6.35,25L24.05,25Q24.9,25.05 25,24.75 25.1,24.45 24.9,24.05L17.5,11.25Q17.337,10.985 17.175,10.8"/><path fill="#D4D4D4" d="M17.175,10.8Q17.337,10.985 17.5,11.25L24.9,24.05Q25.1,24.45 25,24.75 24.9,25.05 24.05,25L6.35,25Q6.225,25 6.1,25 5.95,25.15 5.9,25.3 5.85,25.7 6.3,25.8 6.4,25.85 6.65,25.85 6.8,25.85 6.95,25.85L25.5,25.85Q26.4,25.9 26.5,25.6 26.6,25.3 26.4,24.9L18.6,11.45Q17.913,10.292 17.175,10.8"/><path fill="#8CD5FF" d="M26.25,9.6Q25.1,8.45 23.45,8.45 21.75,8.45 20.55,9.6 19.75,10.4 19.55,11.45L18.65,11.45Q18.55,11.45 18.45,11.45 17.45,11.45 16.7,12.2 15.95,12.95 15.95,14 15.95,14.1 15.95,14.15 16,15.1 16.7,15.8 17.45,16.55 18.45,16.55 18.55,16.55 18.65,16.55L23.5,16.55Q25.1,16.55 26.25,15.35 27.4,14.25 27.45,12.75 27.45,12.7 27.45,12.65 27.45,12.6 27.45,12.45 27.45,10.8 26.25,9.6"/><path fill="#64BAFF" d="M26.25,15.35Q25.1,16.55 23.5,16.55L18.65,16.55Q18.55,16.55 18.45,16.55 17.45,16.55 16.7,15.8 16,15.1 15.95,14.15 15.95,14.2 15.95,14.25 15.95,15.35 16.7,16.05 17.45,16.8 18.45,16.8 18.55,16.8 18.65,16.8L23.5,16.8Q25.1,16.8 26.25,15.65 27.45,14.45 27.45,12.75 27.4,14.25 26.25,15.35"/><path fill="url(#radialGradient)" d="M13.35,11.6Q13.6,11.85 13.6,12.2L13.6,14.9Q13.6,15.3 13.85,15.55 14.15,15.8 14.5,15.8 14.85,15.8 15.15,15.55 15.35,15.3 15.4,15.1 15.4,15 15.4,14.95L15.4,3.45 6.35,3.8Q5.4,3.8 4.6,4.3 4.25,4.5 3.9,4.8 2.85,5.9 2.8,7.35L2.8,15.15Q2.8,15.45 3.05,15.7 3.35,16 3.7,16 4.05,16 4.35,15.7 4.6,15.45 4.6,15.1L4.6,11Q4.6,10.65 4.85,10.4 5.15,10.1 5.5,10.1 5.85,10.1 6.15,10.4 6.4,10.65 6.4,11L6.45,14Q6.4,14.05 6.4,14.2 6.4,14.55 6.65,14.8 6.95,15.1 7.3,15.1 7.65,15.1 7.95,14.8 8.1,14.65 8.15,14.5 8.2,14.35 8.2,14.2L8.2,10.3Q8.2,9.9 8.45,9.7 8.75,9.4 9.1,9.4 9.45,9.4 9.75,9.7 10,9.9 10,10.3L10,15.8Q10,16.2 10.25,16.45 10.55,16.7 10.9,16.7 11.25,16.7 11.55,16.45 11.75,16.2 11.8,16 11.8,15.9 11.8,15.85L11.8,12.2Q11.8,11.85 12.05,11.6 12.35,11.3 12.7,11.3 13.05,11.3 13.35,11.6"/><g id="dripping_paint" transform="matrix(0.3 0 0 0.3 2.55 3.45)"><path fill="#F9C440" d="M42,37.15L42,0 7.8,0Q4.65,0.05 2.35,2.3 0.05,4.6 0,7.8L0,37.8Q0,38.85 0.85,39.7 1.75,40.6 3,40.6 4.2,40.6 5.1,39.7 6,38.85 6,37.6L6,24Q6,22.8 6.85,22 7.75,21.1 9,21.1 10.2,21.1 11.1,22 12,22.8 12,24L12.1,34.05Q12,34.3 12,34.6 12,35.85 12.85,36.7 13.75,37.6 15,37.6 16.2,37.6 17.1,36.7 17.65,36.15 17.85,35.55 18,35.1 18,34.65L18,21.6Q18,20.4 18.85,19.6 19.75,18.7 21,18.7 22.2,18.7 23.1,19.6 24,20.4 24,21.6L24,40.05Q24,41.35 24.85,42.15 25.75,43.05 27,43.05 28.2,43.05 29.1,42.15 29.8,41.5 30,40.6 30,40.35 30,40.15L30,28Q30,26.8 30.85,25.95 31.75,25.05 33,25.05 34.2,25.05 35.1,25.95 36,26.8 36,28L36,37.05Q36,38.35 36.85,39.15 37.75,40.05 39,40.05 40.2,40.05 41.1,39.15 41.8,38.5 42,37.6 42,37.35 42,37.15"/></g></g></svg>