<?xml version="1.0" encoding="UTF-8"?>
<svg xmlns="http://www.w3.org/2000/svg" xmlns:xlink="http://www.w3.org/1999/xlink" width="48px" height="48px" viewBox="0 0 48 48" version="1.1">
<defs>
<radialGradient id="radial0" gradientUnits="userSpaceOnUse" cx="64.050003" cy="120.650002" fx="64.050003" fy="120.650002" r="54.553001" gradientTransform="matrix(0.375,0,0,0.018,0,43.087501)">
<stop offset="0" style="stop-color:rgb(0%,0%,0%);stop-opacity:0.498039;"/>
<stop offset="1" style="stop-color:rgb(0%,0%,0%);stop-opacity:0;"/>
</radialGradient>
<linearGradient id="linear0" gradientUnits="userSpaceOnUse" x1="64" y1="15.15" x2="64" y2="119.150002" gradientTransform="matrix(0.375,0,0,0.375,0,0)">
<stop offset="0" style="stop-color:rgb(54.901963%,83.529413%,100%);stop-opacity:1;"/>
<stop offset="1" style="stop-color:rgb(21.176471%,53.725493%,90.196079%);stop-opacity:1;"/>
</linearGradient>
<radialGradient id="radial1" gradientUnits="userSpaceOnUse" cx="32.799999" cy="36.900002" fx="32.799999" fy="36.900002" r="29.763" gradientTransform="matrix(0.375,0,0,0.375,0,0)">
<stop offset="0" style="stop-color:rgb(0%,0%,0%);stop-opacity:0.4;"/>
<stop offset="1" style="stop-color:rgb(0%,0%,0%);stop-opacity:0;"/>
</radialGradient>
</defs>
<g id="surface1">
<path style=" stroke:none;fill-rule:nonzero;fill:url(#radial0);" d="M 3.75 45.242188 C 3.75 45.492188 5.730469 45.710938 9.695312 45.898438 C 13.644531 46.085938 18.417969 46.179688 24.019531 46.179688 C 29.59375 46.179688 34.355469 46.085938 38.304688 45.898438 C 42.269531 45.710938 44.25 45.492188 44.25 45.242188 C 44.25 44.980469 42.269531 44.757812 38.304688 44.570312 C 34.355469 44.394531 29.59375 44.304688 24.019531 44.304688 C 18.417969 44.304688 13.644531 44.394531 9.695312 44.570312 C 5.730469 44.757812 3.75 44.980469 3.75 45.242188 "/>
<path style=" stroke:none;fill-rule:nonzero;fill:url(#linear0);" d="M 42.636719 6.5625 C 42.0625 5.988281 41.375 5.695312 40.574219 5.679688 L 7.425781 5.679688 C 6.636719 5.695312 5.960938 5.988281 5.398438 6.5625 C 4.8125 7.136719 4.511719 7.820312 4.5 8.605469 L 4.5 41.757812 C 4.511719 42.542969 4.8125 43.226562 5.398438 43.800781 C 5.960938 44.375 6.636719 44.667969 7.425781 44.679688 L 40.574219 44.679688 C 41.375 44.667969 42.0625 44.375 42.636719 43.800781 C 43.199219 43.226562 43.488281 42.542969 43.5 41.757812 L 43.5 8.605469 C 43.488281 7.820312 43.199219 7.136719 42.636719 6.5625 "/>
<path style="fill:none;stroke-width:2;stroke-linecap:round;stroke-linejoin:round;stroke:rgb(64.313728%,67.450982%,86.274511%);stroke-opacity:0.498;stroke-miterlimit:4;" d="M 104 7.797917 C 103.96875 5.6625 103.1875 3.829167 101.645833 2.297917 C 100.114583 0.797917 98.302083 0.0375004 96.197917 -0.00416629 L 7.802083 -0.00416629 C 5.697917 0.0375004 3.885417 0.797917 2.354167 2.297917 C 0.8125 3.829167 0.03125 5.6625 0 7.797917 L 0 96.204167 C 0.03125 98.297917 0.8125 100.1 2.354167 101.6 C 3.885417 103.1625 5.697917 103.964584 7.802083 103.995834 L 96.197917 103.995834 C 98.302083 103.964584 100.114583 103.1625 101.645833 101.6 C 103.1875 100.1 103.96875 98.297917 104 96.204167 L 104 7.797917 " transform="matrix(0.375,0,0,0.375,4.5,5.68125)"/>
<path style=" stroke:none;fill-rule:nonzero;fill:rgb(100%,100%,100%);fill-opacity:1;" d="M 29.699219 18.207031 C 28.8125 16.78125 27.875 16.78125 26.886719 18.207031 L 19.445312 30.207031 L 17.230469 27.335938 C 16.367188 25.949219 15.449219 25.925781 14.476562 27.261719 L 7.257812 36.636719 C 7.15625 36.8125 7.09375 36.976562 7.070312 37.125 C 6.957031 37.675781 7.425781 37.929688 8.476562 37.894531 L 39.09375 37.894531 C 39.855469 37.917969 40.304688 37.78125 40.445312 37.480469 C 40.53125 37.257812 40.476562 36.945312 40.273438 36.542969 L 29.699219 18.207031 "/>
<path style=" stroke:none;fill-rule:nonzero;fill:rgb(83.137256%,83.137256%,83.137256%);fill-opacity:1;" d="M 8.476562 37.894531 C 7.425781 37.929688 6.957031 37.675781 7.070312 37.125 C 6.84375 37.773438 7.300781 38.082031 8.4375 38.042969 L 39.054688 38.042969 C 39.917969 38.082031 40.382812 37.894531 40.445312 37.480469 C 40.304688 37.78125 39.855469 37.917969 39.09375 37.894531 L 8.476562 37.894531 "/>
<path style=" stroke:none;fill-rule:nonzero;fill:rgb(39.215687%,72.941178%,100%);fill-opacity:1;" d="M 38.945312 25.949219 C 37.992188 26.925781 36.84375 27.417969 35.492188 27.429688 L 29.382812 27.429688 C 29.332031 27.429688 29.269531 27.429688 29.195312 27.429688 C 28.332031 27.429688 27.585938 27.125 26.960938 26.511719 C 26.363281 25.925781 26.042969 25.230469 26.007812 24.429688 C 26.007812 24.480469 26.007812 24.539062 26.007812 24.601562 C 26.007812 25.476562 26.324219 26.226562 26.960938 26.851562 C 27.585938 27.460938 28.332031 27.769531 29.195312 27.769531 C 29.269531 27.769531 29.332031 27.769531 29.382812 27.769531 L 35.492188 27.769531 C 36.84375 27.757812 37.992188 27.261719 38.945312 26.289062 C 39.945312 25.3125 40.445312 24.117188 40.445312 22.707031 C 40.445312 22.65625 40.445312 22.601562 40.445312 22.539062 C 40.40625 23.875 39.90625 25.011719 38.945312 25.949219 "/>
<path style=" stroke:none;fill-rule:nonzero;fill:rgb(54.901963%,83.529413%,100%);fill-opacity:1;" d="M 35.492188 27.429688 C 36.84375 27.417969 37.992188 26.925781 38.945312 25.949219 C 39.90625 25.011719 40.40625 23.875 40.445312 22.539062 C 40.445312 22.488281 40.445312 22.429688 40.445312 22.367188 C 40.445312 20.96875 39.945312 19.769531 38.945312 18.769531 C 37.96875 17.792969 36.78125 17.304688 35.382812 17.304688 C 33.992188 17.304688 32.800781 17.792969 31.800781 18.769531 C 31.125 19.445312 30.6875 20.210938 30.488281 21.074219 L 29.382812 21.074219 C 29.332031 21.074219 29.269531 21.074219 29.195312 21.074219 C 28.332031 21.074219 27.585938 21.386719 26.960938 22.011719 C 26.324219 22.625 26.007812 23.375 26.007812 24.261719 C 26.007812 24.3125 26.007812 24.367188 26.007812 24.429688 C 26.042969 25.230469 26.363281 25.925781 26.960938 26.511719 C 27.585938 27.125 28.332031 27.429688 29.195312 27.429688 C 29.269531 27.429688 29.332031 27.429688 29.382812 27.429688 L 35.492188 27.429688 "/>
<path style=" stroke:none;fill-rule:nonzero;fill:url(#radial1);" d="M 17.585938 15.507812 C 17.8125 15.707031 17.925781 15.957031 17.925781 16.257812 L 17.925781 19.667969 C 17.925781 19.980469 18.03125 20.242188 18.242188 20.457031 C 18.46875 20.679688 18.738281 20.792969 19.050781 20.792969 C 19.351562 20.792969 19.613281 20.679688 19.835938 20.457031 C 20.011719 20.28125 20.125 20.082031 20.175781 19.855469 C 20.175781 19.804688 20.175781 19.75 20.175781 19.6875 L 20.15625 5.304688 L 8.8125 5.773438 C 8.023438 5.789062 7.3125 5.980469 6.675781 6.355469 C 6.363281 6.542969 6.054688 6.78125 5.757812 7.070312 C 4.894531 7.929688 4.449219 8.960938 4.425781 10.164062 L 4.425781 19.949219 C 4.425781 20.210938 4.53125 20.445312 4.742188 20.644531 C 4.96875 20.867188 5.238281 20.980469 5.550781 20.980469 C 5.851562 20.980469 6.113281 20.867188 6.335938 20.644531 C 6.5625 20.445312 6.675781 20.179688 6.675781 19.855469 L 6.675781 14.773438 C 6.675781 14.476562 6.78125 14.21875 6.992188 14.007812 C 7.21875 13.78125 7.488281 13.667969 7.800781 13.667969 C 8.101562 13.667969 8.363281 13.78125 8.585938 14.007812 C 8.8125 14.21875 8.925781 14.476562 8.925781 14.773438 L 8.960938 18.542969 C 8.9375 18.59375 8.925781 18.65625 8.925781 18.730469 C 8.925781 19.054688 9.03125 19.320312 9.242188 19.519531 C 9.46875 19.742188 9.738281 19.855469 10.050781 19.855469 C 10.351562 19.855469 10.613281 19.742188 10.835938 19.519531 C 10.976562 19.394531 11.070312 19.257812 11.117188 19.105469 C 11.15625 18.992188 11.175781 18.882812 11.175781 18.769531 L 11.175781 13.875 C 11.175781 13.574219 11.28125 13.320312 11.492188 13.105469 C 11.71875 12.882812 11.988281 12.769531 12.300781 12.769531 C 12.601562 12.769531 12.863281 12.882812 13.085938 13.105469 C 13.3125 13.320312 13.425781 13.574219 13.425781 13.875 L 13.425781 20.792969 C 13.425781 21.105469 13.53125 21.367188 13.742188 21.582031 C 13.96875 21.804688 14.238281 21.917969 14.550781 21.917969 C 14.851562 21.917969 15.113281 21.804688 15.335938 21.582031 C 15.511719 21.40625 15.625 21.207031 15.675781 20.980469 C 15.675781 20.929688 15.675781 20.875 15.675781 20.8125 L 15.675781 16.257812 C 15.675781 15.957031 15.78125 15.707031 15.992188 15.507812 C 16.21875 15.28125 16.488281 15.167969 16.800781 15.167969 C 17.101562 15.167969 17.363281 15.28125 17.585938 15.507812 "/>
<path style=" stroke:none;fill-rule:nonzero;fill:rgb(97.647059%,76.862746%,25.098041%);fill-opacity:1;" d="M 19.894531 19.238281 L 19.894531 5.304688 L 7.070312 5.304688 C 6.28125 5.320312 5.601562 5.605469 5.023438 6.167969 C 4.449219 6.742188 4.15625 7.429688 4.144531 8.230469 L 4.144531 19.480469 C 4.144531 19.742188 4.25 19.980469 4.460938 20.195312 C 4.6875 20.417969 4.957031 20.53125 5.269531 20.53125 C 5.570312 20.53125 5.832031 20.417969 6.054688 20.195312 C 6.28125 19.980469 6.394531 19.71875 6.394531 19.40625 L 6.394531 14.304688 C 6.394531 14.007812 6.5 13.757812 6.710938 13.554688 C 6.9375 13.332031 7.207031 13.21875 7.519531 13.21875 C 7.820312 13.21875 8.082031 13.332031 8.304688 13.554688 C 8.53125 13.757812 8.644531 14.007812 8.644531 14.304688 L 8.679688 18.074219 C 8.65625 18.136719 8.644531 18.207031 8.644531 18.28125 C 8.644531 18.59375 8.75 18.855469 8.960938 19.070312 C 9.1875 19.292969 9.457031 19.40625 9.769531 19.40625 C 10.070312 19.40625 10.332031 19.292969 10.554688 19.070312 C 10.695312 18.929688 10.789062 18.789062 10.835938 18.636719 C 10.875 18.523438 10.894531 18.414062 10.894531 18.300781 L 10.894531 13.40625 C 10.894531 13.105469 11 12.855469 11.210938 12.65625 C 11.4375 12.429688 11.707031 12.320312 12.019531 12.320312 C 12.320312 12.320312 12.582031 12.429688 12.804688 12.65625 C 13.03125 12.855469 13.144531 13.105469 13.144531 13.40625 L 13.144531 20.324219 C 13.144531 20.648438 13.25 20.914062 13.460938 21.113281 C 13.6875 21.335938 13.957031 21.449219 14.269531 21.449219 C 14.570312 21.449219 14.832031 21.335938 15.054688 21.113281 C 15.230469 20.949219 15.34375 20.757812 15.394531 20.53125 C 15.394531 20.46875 15.394531 20.414062 15.394531 20.363281 L 15.394531 15.804688 C 15.394531 15.507812 15.5 15.25 15.710938 15.039062 C 15.9375 14.8125 16.207031 14.699219 16.519531 14.699219 C 16.820312 14.699219 17.082031 14.8125 17.304688 15.039062 C 17.53125 15.25 17.644531 15.507812 17.644531 15.804688 L 17.644531 19.199219 C 17.644531 19.523438 17.75 19.789062 17.960938 19.988281 C 18.1875 20.210938 18.457031 20.324219 18.769531 20.324219 C 19.070312 20.324219 19.332031 20.210938 19.554688 19.988281 C 19.730469 19.824219 19.84375 19.632812 19.894531 19.40625 C 19.894531 19.34375 19.894531 19.289062 19.894531 19.238281 "/>
</g>
</svg>
