<?xml version="1.0" encoding="UTF-8"?>
<svg xmlns="http://www.w3.org/2000/svg" xmlns:xlink="http://www.w3.org/1999/xlink" width="64px" height="64px" viewBox="0 0 64 64" version="1.1">
<defs>
<radialGradient id="radial0" gradientUnits="userSpaceOnUse" cx="64.050003" cy="120.650002" fx="64.050003" fy="120.650002" r="54.553001" gradientTransform="matrix(0.5,0,0,0.024,0,57.450001)">
<stop offset="0" style="stop-color:rgb(0%,0%,0%);stop-opacity:0.498039;"/>
<stop offset="1" style="stop-color:rgb(0%,0%,0%);stop-opacity:0;"/>
</radialGradient>
<linearGradient id="linear0" gradientUnits="userSpaceOnUse" x1="64" y1="15.15" x2="64" y2="119.150002" gradientTransform="matrix(0.5,0,0,0.5,0,0)">
<stop offset="0" style="stop-color:rgb(54.901963%,83.529413%,100%);stop-opacity:1;"/>
<stop offset="1" style="stop-color:rgb(21.176471%,53.725493%,90.196079%);stop-opacity:1;"/>
</linearGradient>
<radialGradient id="radial1" gradientUnits="userSpaceOnUse" cx="32.799999" cy="36.900002" fx="32.799999" fy="36.900002" r="29.763" gradientTransform="matrix(0.5,0,0,0.5,0,0)">
<stop offset="0" style="stop-color:rgb(0%,0%,0%);stop-opacity:0.4;"/>
<stop offset="1" style="stop-color:rgb(0%,0%,0%);stop-opacity:0;"/>
</radialGradient>
</defs>
<g id="surface1">
<path style=" stroke:none;fill-rule:nonzero;fill:url(#radial0);" d="M 5 60.324219 C 5 60.660156 7.640625 60.949219 12.925781 61.199219 C 18.191406 61.449219 24.558594 61.574219 32.023438 61.574219 C 39.457031 61.574219 45.808594 61.449219 51.074219 61.199219 C 56.359375 60.949219 59 60.660156 59 60.324219 C 59 59.976562 56.359375 59.675781 51.074219 59.425781 C 45.808594 59.191406 39.457031 59.074219 32.023438 59.074219 C 24.558594 59.074219 18.191406 59.191406 12.925781 59.425781 C 7.640625 59.675781 5 59.976562 5 60.324219 "/>
<path style=" stroke:none;fill-rule:nonzero;fill:url(#linear0);" d="M 56.851562 8.75 C 56.082031 7.984375 55.167969 7.589844 54.101562 7.574219 L 9.898438 7.574219 C 8.851562 7.589844 7.949219 7.984375 7.199219 8.75 C 6.417969 9.515625 6.015625 10.425781 6 11.476562 L 6 55.675781 C 6.015625 56.726562 6.417969 57.632812 7.199219 58.398438 C 7.949219 59.167969 8.851562 59.558594 9.898438 59.574219 L 54.101562 59.574219 C 55.167969 59.558594 56.082031 59.167969 56.851562 58.398438 C 57.601562 57.632812 57.984375 56.726562 58 55.675781 L 58 11.476562 C 57.984375 10.425781 57.601562 9.515625 56.851562 8.75 "/>
<path style="fill:none;stroke-width:2;stroke-linecap:round;stroke-linejoin:round;stroke:rgb(64.313728%,67.450982%,86.274511%);stroke-opacity:0.498;stroke-miterlimit:4;" d="M 104 7.803125 C 103.96875 5.670313 103.179688 3.834375 101.648438 2.303125 C 100.117188 0.803125 98.296875 0.0296879 96.203125 -0.00156212 L 7.796875 -0.00156212 C 5.703125 0.0296879 3.882812 0.803125 2.351562 2.303125 C 0.820312 3.834375 0.03125 5.670313 0 7.803125 L 0 96.201563 C 0.03125 98.303125 0.820312 100.1 2.351562 101.6 C 3.882812 103.170313 5.703125 103.967188 7.796875 103.998438 L 96.203125 103.998438 C 98.296875 103.967188 100.117188 103.170313 101.648438 101.6 C 103.179688 100.1 103.96875 98.303125 104 96.201563 L 104 7.803125 " transform="matrix(0.5,0,0,0.5,6,7.575)"/>
<path style=" stroke:none;fill-rule:nonzero;fill:rgb(100%,100%,100%);fill-opacity:1;" d="M 39.601562 24.273438 C 38.417969 22.375 37.167969 22.375 35.851562 24.273438 L 25.925781 40.273438 L 22.976562 36.449219 C 21.824219 34.601562 20.601562 34.566406 19.300781 36.351562 L 9.675781 48.851562 C 9.542969 49.082031 9.457031 49.300781 9.425781 49.5 C 9.273438 50.234375 9.898438 50.574219 11.300781 50.523438 L 52.125 50.523438 C 53.140625 50.558594 53.742188 50.375 53.925781 49.976562 C 54.042969 49.675781 53.964844 49.257812 53.699219 48.726562 L 39.601562 24.273438 "/>
<path style=" stroke:none;fill-rule:nonzero;fill:rgb(83.137256%,83.137256%,83.137256%);fill-opacity:1;" d="M 11.300781 50.523438 C 9.898438 50.574219 9.273438 50.234375 9.425781 49.5 C 9.125 50.367188 9.734375 50.773438 11.25 50.726562 L 52.074219 50.726562 C 53.226562 50.773438 53.839844 50.523438 53.925781 49.976562 C 53.742188 50.375 53.140625 50.558594 52.125 50.523438 L 11.300781 50.523438 "/>
<path style=" stroke:none;fill-rule:nonzero;fill:rgb(39.215687%,72.941178%,100%);fill-opacity:1;" d="M 51.925781 34.601562 C 50.660156 35.898438 49.125 36.558594 47.324219 36.574219 L 39.175781 36.574219 C 39.109375 36.574219 39.023438 36.574219 38.925781 36.574219 C 37.773438 36.574219 36.785156 36.167969 35.949219 35.351562 C 35.148438 34.566406 34.726562 33.640625 34.675781 32.574219 C 34.675781 32.640625 34.675781 32.714844 34.675781 32.800781 C 34.675781 33.964844 35.101562 34.964844 35.949219 35.800781 C 36.785156 36.617188 37.773438 37.023438 38.925781 37.023438 C 39.023438 37.023438 39.109375 37.023438 39.175781 37.023438 L 47.324219 37.023438 C 49.125 37.007812 50.660156 36.351562 51.925781 35.050781 C 53.257812 33.75 53.925781 32.160156 53.925781 30.273438 C 53.925781 30.207031 53.925781 30.132812 53.925781 30.050781 C 53.875 31.832031 53.207031 33.351562 51.925781 34.601562 "/>
<path style=" stroke:none;fill-rule:nonzero;fill:rgb(54.901963%,83.529413%,100%);fill-opacity:1;" d="M 47.324219 36.574219 C 49.125 36.558594 50.660156 35.898438 51.925781 34.601562 C 53.207031 33.351562 53.875 31.832031 53.925781 30.050781 C 53.925781 29.984375 53.925781 29.910156 53.925781 29.824219 C 53.925781 27.957031 53.257812 26.359375 51.925781 25.023438 C 50.625 23.726562 49.042969 23.074219 47.175781 23.074219 C 45.324219 23.074219 43.734375 23.726562 42.398438 25.023438 C 41.5 25.925781 40.917969 26.949219 40.648438 28.101562 L 39.175781 28.101562 C 39.109375 28.101562 39.023438 28.101562 38.925781 28.101562 C 37.773438 28.101562 36.785156 28.515625 35.949219 29.351562 C 35.101562 30.167969 34.675781 31.167969 34.675781 32.351562 C 34.675781 32.417969 34.675781 32.492188 34.675781 32.574219 C 34.726562 33.640625 35.148438 34.566406 35.949219 35.351562 C 36.785156 36.167969 37.773438 36.574219 38.925781 36.574219 C 39.023438 36.574219 39.109375 36.574219 39.175781 36.574219 L 47.324219 36.574219 "/>
<path style=" stroke:none;fill-rule:nonzero;fill:url(#radial1);" d="M 23.449219 20.675781 C 23.75 20.941406 23.898438 21.273438 23.898438 21.675781 L 23.898438 26.226562 C 23.898438 26.640625 24.042969 26.992188 24.324219 27.273438 C 24.625 27.574219 24.984375 27.726562 25.398438 27.726562 C 25.800781 27.726562 26.148438 27.574219 26.449219 27.273438 C 26.683594 27.042969 26.832031 26.773438 26.898438 26.476562 C 26.898438 26.410156 26.898438 26.332031 26.898438 26.25 L 26.875 7.074219 L 11.75 7.699219 C 10.699219 7.714844 9.75 7.976562 8.898438 8.476562 C 8.484375 8.726562 8.074219 9.042969 7.675781 9.425781 C 6.523438 10.574219 5.933594 11.949219 5.898438 13.550781 L 5.898438 26.601562 C 5.898438 26.949219 6.042969 27.257812 6.324219 27.523438 C 6.625 27.824219 6.984375 27.976562 7.398438 27.976562 C 7.800781 27.976562 8.148438 27.824219 8.449219 27.523438 C 8.75 27.257812 8.898438 26.910156 8.898438 26.476562 L 8.898438 19.699219 C 8.898438 19.300781 9.042969 18.957031 9.324219 18.675781 C 9.625 18.375 9.984375 18.226562 10.398438 18.226562 C 10.800781 18.226562 11.148438 18.375 11.449219 18.675781 C 11.75 18.957031 11.898438 19.300781 11.898438 19.699219 L 11.949219 24.726562 C 11.917969 24.792969 11.898438 24.875 11.898438 24.976562 C 11.898438 25.410156 12.042969 25.757812 12.324219 26.023438 C 12.625 26.324219 12.984375 26.476562 13.398438 26.476562 C 13.800781 26.476562 14.148438 26.324219 14.449219 26.023438 C 14.632812 25.859375 14.757812 25.675781 14.824219 25.476562 C 14.875 25.324219 14.898438 25.175781 14.898438 25.023438 L 14.898438 18.5 C 14.898438 18.101562 15.042969 17.757812 15.324219 17.476562 C 15.625 17.175781 15.984375 17.023438 16.398438 17.023438 C 16.800781 17.023438 17.148438 17.175781 17.449219 17.476562 C 17.75 17.757812 17.898438 18.101562 17.898438 18.5 L 17.898438 27.726562 C 17.898438 28.140625 18.042969 28.492188 18.324219 28.773438 C 18.625 29.074219 18.984375 29.226562 19.398438 29.226562 C 19.800781 29.226562 20.148438 29.074219 20.449219 28.773438 C 20.683594 28.542969 20.832031 28.273438 20.898438 27.976562 C 20.898438 27.910156 20.898438 27.832031 20.898438 27.75 L 20.898438 21.675781 C 20.898438 21.273438 21.042969 20.941406 21.324219 20.675781 C 21.625 20.375 21.984375 20.226562 22.398438 20.226562 C 22.800781 20.226562 23.148438 20.375 23.449219 20.675781 "/>
<path style=" stroke:none;fill-rule:nonzero;fill:rgb(97.647059%,76.862746%,25.098041%);fill-opacity:1;" d="M 26.523438 25.648438 L 26.523438 7.074219 L 9.425781 7.074219 C 8.375 7.089844 7.464844 7.476562 6.699219 8.226562 C 5.933594 8.992188 5.542969 9.910156 5.523438 10.976562 L 5.523438 25.976562 C 5.523438 26.324219 5.667969 26.640625 5.949219 26.925781 C 6.25 27.226562 6.609375 27.375 7.023438 27.375 C 7.425781 27.375 7.773438 27.226562 8.074219 26.925781 C 8.375 26.640625 8.523438 26.292969 8.523438 25.875 L 8.523438 19.074219 C 8.523438 18.675781 8.667969 18.339844 8.949219 18.074219 C 9.25 17.773438 9.609375 17.625 10.023438 17.625 C 10.425781 17.625 10.773438 17.773438 11.074219 18.074219 C 11.375 18.339844 11.523438 18.675781 11.523438 19.074219 L 11.574219 24.101562 C 11.542969 24.183594 11.523438 24.273438 11.523438 24.375 C 11.523438 24.792969 11.667969 25.140625 11.949219 25.425781 C 12.25 25.726562 12.609375 25.875 13.023438 25.875 C 13.425781 25.875 13.773438 25.726562 14.074219 25.425781 C 14.257812 25.242188 14.382812 25.050781 14.449219 24.851562 C 14.5 24.699219 14.523438 24.550781 14.523438 24.398438 L 14.523438 17.875 C 14.523438 17.476562 14.667969 17.140625 14.949219 16.875 C 15.25 16.574219 15.609375 16.425781 16.023438 16.425781 C 16.425781 16.425781 16.773438 16.574219 17.074219 16.875 C 17.375 17.140625 17.523438 17.476562 17.523438 17.875 L 17.523438 27.101562 C 17.523438 27.535156 17.667969 27.882812 17.949219 28.148438 C 18.25 28.449219 18.609375 28.601562 19.023438 28.601562 C 19.425781 28.601562 19.773438 28.449219 20.074219 28.148438 C 20.308594 27.933594 20.457031 27.675781 20.523438 27.375 C 20.523438 27.292969 20.523438 27.214844 20.523438 27.148438 L 20.523438 21.074219 C 20.523438 20.675781 20.667969 20.332031 20.949219 20.050781 C 21.25 19.75 21.609375 19.601562 22.023438 19.601562 C 22.425781 19.601562 22.773438 19.75 23.074219 20.050781 C 23.375 20.332031 23.523438 20.675781 23.523438 21.074219 L 23.523438 25.601562 C 23.523438 26.035156 23.667969 26.382812 23.949219 26.648438 C 24.25 26.949219 24.609375 27.101562 25.023438 27.101562 C 25.425781 27.101562 25.773438 26.949219 26.074219 26.648438 C 26.308594 26.433594 26.457031 26.175781 26.523438 25.875 C 26.523438 25.792969 26.523438 25.714844 26.523438 25.648438 "/>
</g>
</svg>
