<?xml version="1.0" encoding="utf-8"?><svg xmlns:xlink="http://www.w3.org/1999/xlink" id="tapet-icon-symbolic" image-rendering="auto" baseProfile="basic" version="1.1" x="0px" y="0px" width="128" height="128" xmlns="http://www.w3.org/2000/svg"><g id="Scene_1" overflow="visible"><g id="background_outliine" transform="matrix(1 0 0 1 12 14.15)"><path fill="none" stroke="#333" stroke-opacity="0.502" stroke-width="5" stroke-linecap="round" stroke-linejoin="round" d="M101.65,2.3Q99.35,0.05 96.2,0L7.8,0Q4.65,0.05 2.35,2.3 0.05,4.6 0,7.8L0,96.2Q0.05,99.35 2.35,101.6 4.65,103.95 7.8,104L96.2,104Q99.35,103.95 101.65,101.6 103.95,99.35 104,96.2L104,7.8Q103.95,4.6 101.65,2.3"/></g><path fill="#666" d="M107.025,93.8Q107.47,93.542 107.65,93.15 108,92.25 107.2,90.65L79,41.75Q75.45,36.05 71.5,41.75L51.65,73.75 45.75,66.1Q42.3,60.55 38.4,65.9L19.15,90.9Q18.75,91.6 18.65,92.2 18.372,93.561 19.875,94.025 20.797,94.307 22.4,94.25L104.05,94.25Q106.103,94.317 107.025,93.8"/><path fill="#333" d="M107.4,94.45L107.025,93.8Q106.103,94.317 104.05,94.25L22.4,94.25Q20.797,94.307 19.875,94.025L19.35,94.7Q18.95,95.4 18.85,96 18.4,98.2 22.6,98.05L104.25,98.05Q107.3,98.15 107.85,96.95 108.2,96.05 107.4,94.45"/><path fill="#999" d="M94.35,41.05Q88.8,41.05 84.8,44.95 82.1,47.65 81.3,51.1L78.35,51.1Q78.15,51.1 77.85,51.1 74.4,51.1 71.9,53.6 69.35,56.05 69.35,59.6 69.35,59.8 69.35,60.05 69.377,60.625 69.475,61.175 69.931,63.672 71.9,65.6 74.4,68.05 77.85,68.05 78.15,68.05 78.35,68.05L94.65,68.05Q100.05,68 103.85,64.1 107.283,60.756 107.775,56.15 107.834,55.579 107.85,55 107.85,54.8 107.85,54.55 107.85,48.95 103.85,44.95 99.95,41.05 94.35,41.05"/><path fill="#333" d="M107.775,56.15Q107.283,60.756 103.85,64.1 100.05,68 94.65,68.05L78.35,68.05Q78.15,68.05 77.85,68.05 74.4,68.05 71.9,65.6 69.931,63.672 69.475,61.175 69.35,61.909 69.35,62.7 69.35,62.9 69.35,63.15 69.5,66.35 71.9,68.7 74.4,71.15 77.85,71.15 78.15,71.15 78.35,71.15L94.65,71.15Q100.05,71.1 103.85,67.2 107.7,63.45 107.85,58.1 107.85,57.9 107.85,57.65 107.85,56.879 107.775,56.15"/></g></svg>